<svg width="24" height="24" viewBox="0 0 24 24" fill="none" xmlns="http://www.w3.org/2000/svg">
<g opacity="0.7">
<path d="M20.3459 9.1586C20.3365 8.4532 20.2042 7.75482 19.955 7.09469C19.7389 6.53787 19.4088 6.03218 18.9858 5.60993C18.5629 5.18768 18.0563 4.85815 17.4986 4.6424C16.8459 4.39778 16.1563 4.26551 15.4592 4.25122C14.5618 4.21117 14.2772 4.2 11.999 4.2C9.72086 4.2 9.42885 4.2 8.53791 4.25122C7.84117 4.26562 7.15192 4.39788 6.49949 4.6424C5.94166 4.858 5.43505 5.18747 5.01207 5.60974C4.5891 6.03202 4.25907 6.53778 4.04311 7.09469C3.7976 7.74584 3.66539 8.43409 3.65222 9.12972C3.6121 10.0266 3.59998 10.3107 3.59998 12.5851C3.59998 14.8595 3.59998 15.1501 3.65222 16.0405C3.66621 16.7371 3.79775 17.4245 4.04311 18.0774C4.25943 18.6341 4.58971 19.1397 5.01282 19.5618C5.43594 19.9838 5.94259 20.3132 6.50042 20.5287C7.15107 20.7832 7.84044 20.9249 8.53885 20.9478C9.43725 20.9879 9.72179 21 12 21C14.2782 21 14.5702 21 15.4611 20.9478C16.1581 20.9341 16.8478 20.8022 17.5005 20.5576C18.0581 20.3416 18.5645 20.012 18.9874 19.5898C19.4103 19.1675 19.7405 18.662 19.9568 18.1053C20.2022 17.4534 20.3337 16.766 20.3477 16.0684C20.3878 15.1724 20.4 14.8884 20.4 12.613C20.3981 10.3386 20.3981 10.0499 20.3459 9.1586ZM11.9934 16.8861C9.61077 16.8861 7.68056 14.9592 7.68056 12.5804C7.68056 10.2017 9.61077 8.27473 11.9934 8.27473C13.1373 8.27473 14.2343 8.72836 15.0431 9.53584C15.8519 10.3433 16.3063 11.4385 16.3063 12.5804C16.3063 13.7224 15.8519 14.8176 15.0431 15.625C14.2343 16.4325 13.1373 16.8861 11.9934 16.8861ZM16.478 9.11948C15.921 9.11948 15.4723 8.67056 15.4723 8.11546C15.4723 7.98368 15.4983 7.85318 15.5488 7.73142C15.5993 7.60967 15.6734 7.49904 15.7667 7.40585C15.8601 7.31266 15.9709 7.23874 16.0928 7.18831C16.2148 7.13787 16.3455 7.11192 16.4775 7.11192C16.6095 7.11192 16.7402 7.13787 16.8622 7.18831C16.9842 7.23874 17.095 7.31266 17.1883 7.40585C17.2817 7.49904 17.3557 7.60967 17.4062 7.73142C17.4567 7.85318 17.4827 7.98368 17.4827 8.11546C17.4827 8.67056 17.0331 9.11948 16.478 9.11948Z" fill="#1F1F1F"/>
<path d="M11.9942 15.582C13.6527 15.582 14.9972 14.2375 14.9972 12.579C14.9972 10.9205 13.6527 9.57597 11.9942 9.57597C10.3357 9.57597 8.99121 10.9205 8.99121 12.579C8.99121 14.2375 10.3357 15.582 11.9942 15.582Z" fill="#1F1F1F"/>
</g>
</svg>
