<svg width="24" height="24" viewBox="0 0 24 24" fill="none" xmlns="http://www.w3.org/2000/svg">
<g opacity="0.7">
<path d="M5.39998 7.8C6.39409 7.8 7.19998 6.8598 7.19998 5.7C7.19998 4.5402 6.39409 3.6 5.39998 3.6C4.40586 3.6 3.59998 4.5402 3.59998 5.7C3.59998 6.8598 4.40586 7.8 5.39998 7.8Z" fill="#1F1F1F"/>
<path d="M9.36292 9.27492V20.3991H12.8993V14.8979C12.8993 13.4464 13.1789 12.0406 15.0217 12.0406C16.8392 12.0406 16.8617 13.7002 16.8617 14.9896V20.4H20.4V14.2995C20.4 11.3029 19.7394 9 16.1533 9C14.4315 9 13.2775 9.92281 12.8055 10.7961H12.7576V9.27492H9.36292ZM3.59998 9.27492H7.142V20.3991H3.59998V9.27492Z" fill="#1F1F1F"/>
</g>
</svg>
