<svg width="24" height="24" viewBox="0 0 24 24" fill="none" xmlns="http://www.w3.org/2000/svg">
<g opacity="0.7">
<path d="M18.89 7.01197C19.698 6.51597 20.233 5.83897 20.495 4.97797C19.7571 5.37708 18.9652 5.6671 18.144 5.83897C17.441 5.08297 16.551 4.69897 15.484 4.69897C14.441 4.69897 13.56 5.06497 12.841 5.77697C12.4938 6.11508 12.2193 6.52052 12.0342 6.96846C11.8492 7.41639 11.7576 7.89739 11.765 8.38197C11.765 8.69097 11.804 8.96697 11.882 9.20097C8.80602 9.09597 6.26002 7.81997 4.25402 5.36397C3.91402 5.96497 3.74402 6.57697 3.74402 7.20997C3.74402 8.51097 4.29302 9.54197 5.38902 10.299C4.76402 10.246 4.21302 10.088 3.74402 9.82897C3.74402 10.758 4.01702 11.534 4.56402 12.217C5.09538 12.8825 5.8442 13.3396 6.67902 13.508C6.36702 13.588 6.03802 13.626 5.70002 13.626C5.38802 13.626 5.16702 13.6 5.03602 13.543C5.26602 14.3 5.70002 14.914 6.32702 15.384C6.94686 15.8546 7.70085 16.1149 8.47902 16.127C7.14702 17.172 5.62402 17.689 3.90102 17.689C3.47902 17.689 3.18002 17.683 2.99902 17.651C4.69602 18.753 6.58502 19.3 8.67502 19.3C10.814 19.3 12.704 18.758 14.349 17.674C15.994 16.596 17.208 15.266 17.988 13.7C18.7594 12.1847 19.161 10.5083 19.16 8.80797V8.33997C19.879 7.8099 20.5014 7.16009 21 6.41897C20.3266 6.71084 19.6169 6.91031 18.89 7.01197Z" fill="#1F1F1F"/>
</g>
</svg>
